<svg id="Layer_1" data-name="Layer 1" xmlns="http://www.w3.org/2000/svg" width="4623.45" height="773.37" viewBox="0 0 4623.45 773.37"><defs><style>.cls-1{fill:none;stroke:#231f20;stroke-miterlimit:10;stroke-width:6px;}</style></defs><title>baby_bill_</title><path class="cls-1" d="M161,91.52H3V8.62H387.56v82.9H228.82V763.68H161Z"/><path class="cls-1" d="M512.4,8.62V324.53H763.61V8.62h67.81v755H763.61V409.68H512.4v354h-67V8.68Z"/><path class="cls-1" d="M1216.72,409.68h-201.9V681.9h225v81.78h-292V8.68h280.5V90.46h-213.5V329.07h201.9Z"/><path class="cls-1" d="M1490.27,18.68C1519.55,9.68,1565.79,3,1612.8,3c67,0,110.2,16.8,142.56,54.89,27,29.13,43.16,73.94,43.16,133.31,0,72.82-33.14,136.67-87.85,165.8v2.24c49.32,17.92,107.11,77.3,107.11,189.32,0,65-17.72,114.27-43.92,151.24-36.22,48.17-94.79,70.57-179.56,70.57-46.23,0-81.68-4.48-104-9Zm67,309.19h60.85c70.9,0,112.51-53.77,112.51-126.59,0-88.5-46.23-123.22-114-123.22-30.82,0-48.55,3.36-59.34,6.72Zm0,361.84c13.1,3.37,32.37,4.49,56.26,4.49,69.35,0,133.32-37,133.32-146.76,0-103.06-60.88-145.63-134.09-145.63h-55.49Z"/><path class="cls-1" d="M1991.93,526.18,1938,763.68h-69.35l176.48-755H2126l177.24,755H2231.6l-55.48-237.5ZM2162.24,450l-50.86-217.32c-11.56-49.29-19.27-94.1-27-137.79h-1.54c-7.71,44.81-16.19,90.74-26.2,136.67L2005.77,450Z"/><path class="cls-1" d="M2379.55,18.68C2408.83,9.68,2455.07,3,2502.08,3c67,0,110.19,16.8,142.55,54.89,27,29.13,43.16,73.94,43.16,133.31,0,72.82-33.14,136.67-87.85,165.8v2.24c49.32,17.92,107.11,77.3,107.11,189.32,0,65-17.72,114.27-43.92,151.24-36.22,48.17-94.79,70.57-179.55,70.57-46.23,0-81.68-4.48-104-9Zm67,309.19h60.87c70.9,0,112.51-53.77,112.51-126.59,0-88.5-46.24-123.22-114-123.22-30.81,0-48.54,3.36-59.33,6.72Zm0,361.84c13.1,3.37,32.37,4.49,56.26,4.49,69.34,0,133.3-37,133.3-146.76,0-103.06-60.87-145.63-134.07-145.63h-55.49Z"/><path class="cls-1" d="M2901.24,763.68V443.28L2737.12,8.62h76.29L2886.62,217c20,57.13,35.45,103.06,51.63,155.71h1.54c14.64-49.29,32.37-98.58,52.4-155.71L3066.94,8.62h76.29L2969.12,442.16V763.68Z"/><path class="cls-1" d="M3365.9,18.68C3395.18,9.68,3441.42,3,3488.43,3c67,0,110.19,16.8,142.56,54.89,27,29.13,43.15,73.94,43.15,133.31,0,72.82-33.13,136.67-87.85,165.8v2.24c49.32,17.92,107.12,77.3,107.12,189.32,0,65-17.72,114.27-43.93,151.24-36.21,48.17-94.78,70.57-179.55,70.57-46.24,0-81.68-4.48-104-9Zm67,309.19h60.88c70.9,0,112.51-53.77,112.51-126.59,0-88.5-46.24-123.22-114.05-123.22-30.83,0-48.55,3.36-59.34,6.72Zm0,361.84c13.1,3.37,32.37,4.49,56.26,4.49,69.35,0,133.31-37,133.31-146.76,0-103.06-60.88-145.63-134.08-145.63h-55.45Z"/><path class="cls-1" d="M3850.61,8.62v755h-67V8.62Z"/><path class="cls-1" d="M3967.74,8.62h67V681.89h221.94v81.79h-289Z"/><path class="cls-1" d="M4331.45,8.62h67V681.89h222v81.79h-289Z"/></svg>