<svg xmlns="http://www.w3.org/2000/svg" width="1295.94mm" height="290.68mm" viewBox="0 0 3673.54 823.98"><defs><style>.cls-1,.cls-2{fill:#bb9571;}.cls-1,.cls-2,.cls-3,.cls-4,.cls-5,.cls-6,.cls-7{stroke:#231f20;stroke-miterlimit:10;}.cls-1,.cls-3,.cls-4,.cls-5,.cls-6,.cls-7{stroke-width:3px;}.cls-2{stroke-width:4px;}.cls-3{fill:#604a35;}.cls-4{fill:#fff;}.cls-5{fill:#231f20;}.cls-6{fill:#473422;}.cls-7{fill:none;}</style></defs><title>dog</title><g id="Layer_1" data-name="Layer 1"><ellipse class="cls-1" cx="189.95" cy="438.39" rx="60.1" ry="54.21"/><path class="cls-2" d="M113.74,559.88c0,94.29,126.42,170.72,282.36,170.72s282.37-76.43,282.37-170.72-54.28-200-282.37-170.73C241.8,409,113.74,465.59,113.74,559.88Z"/><path class="cls-1" d="M512.1,711.25c0,34,40.54,38.06,78.49,61.64s78.49-27.59,78.49-61.64-48.3-92-78.49-61.64C545.82,694.71,512.1,677.21,512.1,711.25Z"/><path class="cls-1" d="M392.47,743.27c0,34,40.54,38.05,78.49,61.64s78.5-27.6,78.5-61.64-48.31-92-78.5-61.64C426.19,726.73,392.47,709.22,392.47,743.27Z"/><path class="cls-1" d="M235.18,698.64c0,34-40.54,38.05-78.49,61.64s-78.5-27.6-78.5-61.64,48.31-92,78.5-61.64C201.46,682.1,235.18,664.59,235.18,698.64Z"/><path class="cls-1" d="M293.49,731.87c0,34-40.53,38-78.49,61.64s-78.49-27.6-78.49-61.64,48.3-92,78.49-61.64C259.77,715.33,293.49,697.82,293.49,731.87Z"/><path class="cls-1" d="M324.47,237.63C295.21,345.15,417.39,420,532,420S778.9,354.69,739.57,237.63C707,140.74,646.65,55.28,532,55.28S352.27,135.46,324.47,237.63Z"/><rect class="cls-3" x="457.17" y="259.04" width="152.35" height="148.89" rx="74.45" transform="translate(1066.69 666.98) rotate(-180)"/><ellipse class="cls-3" cx="596.41" cy="227.19" rx="40.61" ry="39.69"/><ellipse class="cls-3" cx="470.96" cy="227.19" rx="40.61" ry="39.69"/><ellipse class="cls-4" cx="596.41" cy="227.19" rx="33.19" ry="26.83"/><ellipse class="cls-4" cx="470.96" cy="227.19" rx="33.19" ry="26.83"/><ellipse class="cls-5" cx="592.31" cy="230.95" rx="17.21" ry="16.82"/><ellipse class="cls-5" cx="470.96" cy="230.95" rx="17.21" ry="16.82"/><ellipse class="cls-4" cx="581.7" cy="243.48" rx="4.38" ry="4.28"/><ellipse class="cls-4" cx="461.55" cy="243.48" rx="4.38" ry="4.28"/><path class="cls-3" d="M601.8,326.84c7.78,31.21-14.81,55-33.07,55s-18.32-20.16-33.07-55c-11.89-28.12,14.81-55,33.07-55S594.44,297.3,601.8,326.84Z"/><path class="cls-3" d="M461.82,326.84c-7.71,31.21,14.67,55,32.77,55s18.16-20.16,32.77-55c11.79-28.12-14.67-55-32.77-55S469.11,297.3,461.82,326.84Z"/><path class="cls-6" d="M513.9,285c0,13.24,9.38,12.34,18.81,13.14,11.87,1,18.82-5.88,18.82-13.14s-8.43-13.14-18.82-13.14S513.9,277.7,513.9,285Z"/><path class="cls-3" d="M555.79,369c0,5.6-11.56,10.15-25.82,10.15s-25.82-4.55-25.82-10.15"/><path class="cls-7" d="M563.22,182.57c0-8.72,15.66-15.79,35-15.79s35,7.07,35,15.79"/><path class="cls-7" d="M436,182.57c0-8.72,15.66-15.79,35-15.79s35,7.07,35,15.79"/><path class="cls-3" d="M768.07,126.59c0,40.15-57.9,48.09-102.19,48.09s-36.6,0-64.3-72.7C587.33,64.58,575,14.1,681.77,29.29,725.64,35.53,768.07,86.44,768.07,126.59Z"/><path class="cls-3" d="M295.21,126.59c0,40.15,57.9,48.09,102.19,48.09s36.6,0,64.3-72.7C476,64.58,488.25,14.1,381.51,29.29,337.64,35.53,295.21,86.44,295.21,126.59Z"/></g><g id="Layer_2" data-name="Layer 2"><ellipse class="cls-1" cx="1596.05" cy="444.24" rx="61.1" ry="53.59"/><path class="cls-2" d="M1518.57,564.33c0,93.2,128.53,168.76,287.07,168.76s287.06-75.56,287.06-168.76-55.19-197.72-287.06-168.77C1648.76,415.15,1518.57,471.12,1518.57,564.33Z"/><path class="cls-1" d="M1923.56,714c0,33.66,41.21,37.62,79.8,60.94s79.8-27.28,79.8-60.94-49.11-91-79.8-60.93C1957.84,697.62,1923.56,680.31,1923.56,714Z"/><path class="cls-1" d="M1802,745.61c0,33.65,41.2,37.62,79.79,60.93s79.8-27.28,79.8-60.93-49.11-91-79.8-60.93C1836.23,729.26,1802,712,1802,745.61Z"/><path class="cls-1" d="M1642,701.49c0,33.66-41.21,37.62-79.79,60.94s-79.8-27.28-79.8-60.94,49.11-91,79.8-60.93C1607.75,685.15,1642,667.84,1642,701.49Z"/><path class="cls-1" d="M1701.32,734.34c0,33.65-41.21,37.62-79.8,60.94s-79.8-27.29-79.8-60.94,49.11-91,79.8-60.93C1667,718,1701.32,700.69,1701.32,734.34Z"/><path class="cls-1" d="M1732.81,245.78c-29.74,106.29,94.47,180.25,211,180.25s251-64.53,211-180.25c-33.09-95.78-94.47-180.26-211-180.26S1761.07,144.78,1732.81,245.78Z"/><rect class="cls-3" x="1867.72" y="266.95" width="154.89" height="147.18" rx="73.59" transform="translate(3890.32 681.08) rotate(-180)"/><ellipse class="cls-3" cx="2009.27" cy="235.46" rx="41.29" ry="39.24"/><ellipse class="cls-3" cx="1881.74" cy="235.46" rx="41.29" ry="39.24"/><ellipse class="cls-4" cx="2009.27" cy="235.46" rx="33.74" ry="26.52"/><ellipse class="cls-4" cx="1881.74" cy="235.46" rx="33.74" ry="26.52"/><ellipse class="cls-5" cx="2005.11" cy="239.18" rx="17.49" ry="16.62"/><ellipse class="cls-5" cx="1881.74" cy="239.18" rx="17.49" ry="16.62"/><ellipse class="cls-4" cx="1994.32" cy="251.56" rx="4.46" ry="4.23"/><ellipse class="cls-4" cx="1872.17" cy="251.56" rx="4.46" ry="4.23"/><path class="cls-3" d="M2014.76,334c7.9,30.85-15.06,54.4-33.62,54.4s-18.63-19.92-33.62-54.4c-12.09-27.8,15-54.39,33.62-54.39S2007.27,304.76,2014.76,334Z"/><path class="cls-3" d="M1872.44,334c-7.83,30.85,14.92,54.4,33.32,54.4s18.47-19.92,33.32-54.4c12-27.8-14.92-54.39-33.32-54.39S1879.86,304.76,1872.44,334Z"/><path class="cls-6" d="M1925.39,292.56c0,13.09,9.54,12.19,19.13,13,12.06,1,19.13-5.82,19.13-13s-8.57-13-19.13-13S1925.39,285.39,1925.39,292.56Z"/><path class="cls-3" d="M1968,375.61c0,5.54-11.75,10-26.25,10s-26.25-4.49-26.25-10"/><path class="cls-7" d="M1975.53,191.36c0-8.63,15.93-15.62,35.57-15.62s35.57,7,35.57,15.62"/><path class="cls-7" d="M1846.17,191.36c0-8.63,15.93-15.62,35.57-15.62s35.57,7,35.57,15.62"/><path class="cls-3" d="M2183.79,136c0,39.68-58.86,47.53-103.89,47.53s-37.21,0-65.37-71.86c-14.49-37-27-86.87,81.53-71.86C2140.66,46,2183.79,96.33,2183.79,136Z"/><path class="cls-3" d="M1703.07,136c0,39.68,58.86,47.53,103.88,47.53s37.21,0,65.37-71.86c14.49-37,27-86.87-81.52-71.86C1746.2,46,1703.07,96.33,1703.07,136Z"/></g><g id="Layer_3" data-name="Layer 3"><ellipse class="cls-1" cx="2310.51" cy="445.28" rx="61.5" ry="53.06"/><path class="cls-2" d="M2232.53,564.18c0,92.29,129.36,167.1,288.93,167.1s288.93-74.81,288.93-167.1-55.55-195.76-288.93-167.09C2363.57,416.48,2232.53,471.9,2232.53,564.18Z"/><path class="cls-1" d="M2640.15,712.34c0,33.32,41.48,37.25,80.32,60.33s80.31-27,80.31-60.33-49.43-90.09-80.31-60.33C2674.66,696.15,2640.15,679,2640.15,712.34Z"/><path class="cls-1" d="M2517.74,743.67c0,33.32,41.48,37.25,80.32,60.33s80.32-27,80.32-60.33-49.43-90.09-80.32-60.33C2552.25,727.49,2517.74,710.35,2517.74,743.67Z"/><path class="cls-1" d="M2356.79,700c0,33.32-41.47,37.25-80.31,60.33s-80.32-27-80.32-60.33,49.43-90.09,80.32-60.33C2322.29,683.81,2356.79,666.67,2356.79,700Z"/><path class="cls-1" d="M2416.46,732.51c0,33.32-41.48,37.25-80.32,60.33s-80.31-27-80.31-60.33,49.43-90.09,80.31-60.33C2382,716.33,2416.46,699.2,2416.46,732.51Z"/><path class="cls-1" d="M2448.16,248.79c-29.94,105.24,95.08,178.46,212.38,178.46s252.62-63.89,212.37-178.46C2839.6,154,2777.83,70.32,2660.54,70.32S2476.61,148.79,2448.16,248.79Z"/><rect class="cls-3" x="2583.94" y="269.75" width="155.89" height="145.73" rx="71.9" transform="translate(5323.78 685.22) rotate(-180)"/><ellipse class="cls-3" cx="2726.42" cy="238.58" rx="41.56" ry="38.85"/><ellipse class="cls-3" cx="2598.06" cy="238.58" rx="41.56" ry="38.85"/><ellipse class="cls-4" cx="2726.42" cy="238.58" rx="33.96" ry="26.26"/><ellipse class="cls-4" cx="2598.06" cy="238.58" rx="33.96" ry="26.26"/><ellipse class="cls-5" cx="2722.23" cy="242.25" rx="17.61" ry="16.46"/><ellipse class="cls-5" cx="2598.06" cy="242.25" rx="17.61" ry="16.46"/><ellipse class="cls-4" cx="2711.37" cy="254.52" rx="4.49" ry="4.19"/><ellipse class="cls-4" cx="2588.43" cy="254.52" rx="4.49" ry="4.19"/><path class="cls-3" d="M2731.94,336.1c7.95,30.55-15.15,53.86-33.84,53.86s-18.75-19.73-33.84-53.86c-12.16-27.52,15.15-53.85,33.84-53.85S2724.4,307.19,2731.94,336.1Z"/><path class="cls-3" d="M2588.7,336.1c-7.89,30.55,15,53.86,33.54,53.86s18.58-19.73,33.53-53.86c12.06-27.52-15-53.85-33.53-53.85S2596.17,307.19,2588.7,336.1Z"/><path class="cls-6" d="M2642,295.11c0,13,9.61,12.07,19.25,12.86,12.15,1,19.25-5.76,19.25-12.86s-8.61-12.86-19.25-12.86S2642,288,2642,295.11Z"/><path class="cls-3" d="M2684.86,377.33c0,5.49-11.83,9.94-26.42,9.94s-26.42-4.45-26.42-9.94"/><path class="cls-7" d="M2692.46,194.91c0-8.54,16-15.46,35.8-15.46s35.8,6.92,35.8,15.46"/><path class="cls-7" d="M2562.26,194.91c0-8.54,16-15.46,35.8-15.46s35.8,6.92,35.8,15.46"/><path class="cls-3" d="M2902.07,140.11c0,39.3-59.24,47.07-104.56,47.07s-37.46,0-65.8-71.15c-14.58-36.61-27.17-86,82.06-71.15C2858.66,51,2902.07,100.82,2902.07,140.11Z"/><path class="cls-3" d="M2418.22,140.11c0,39.3,59.24,47.07,104.56,47.07s37.46,0,65.8-71.15c14.58-36.61,27.17-86-82.06-71.15C2461.64,51,2418.22,100.82,2418.22,140.11Z"/></g><g id="Layer_4" data-name="Layer 4"><ellipse class="cls-1" cx="3022.49" cy="446.19" rx="60.64" ry="52.19"/><path class="cls-2" d="M2945.59,563.13c0,90.76,127.56,164.34,284.91,164.34s284.91-73.58,284.91-164.34S3460.64,370.6,3230.5,398.79C3074.81,417.86,2945.59,472.37,2945.59,563.13Z"/><path class="cls-1" d="M3347.55,708.84c0,32.77,40.9,36.64,79.2,59.34s79.2-26.57,79.2-59.34-48.75-88.6-79.2-59.33C3381.57,692.92,3347.55,676.07,3347.55,708.84Z"/><path class="cls-1" d="M3226.84,739.66c0,32.77,40.9,36.63,79.2,59.34s79.2-26.57,79.2-59.34-48.74-88.6-79.2-59.33C3260.86,723.74,3226.84,706.89,3226.84,739.66Z"/><path class="cls-1" d="M3068.13,696.7c0,32.77-40.9,36.63-79.2,59.34s-79.2-26.57-79.2-59.34,48.74-88.6,79.2-59.33C3034.11,680.78,3068.13,663.93,3068.13,696.7Z"/><path class="cls-1" d="M3127,728.69c0,32.77-40.9,36.63-79.2,59.33s-79.2-26.56-79.2-59.33,48.74-88.61,79.2-59.34C3092.94,712.77,3127,695.92,3127,728.69Z"/><path class="cls-1" d="M3158.23,252.94c-29.52,103.5,93.76,175.52,209.42,175.52s249.1-62.84,209.42-175.52c-32.85-93.26-93.76-175.53-209.42-175.53S3186.28,154.59,3158.23,252.94Z"/><rect class="cls-3" x="3292.12" y="273.55" width="153.73" height="143.32" rx="71.66" transform="translate(6737.97 690.43) rotate(-180)"/><ellipse class="cls-3" cx="3432.61" cy="242.89" rx="40.98" ry="38.21"/><ellipse class="cls-3" cx="3306.04" cy="242.89" rx="40.98" ry="38.21"/><ellipse class="cls-4" cx="3432.61" cy="242.89" rx="33.49" ry="25.83"/><ellipse class="cls-4" cx="3306.04" cy="242.89" rx="33.49" ry="25.83"/><ellipse class="cls-5" cx="3428.48" cy="246.51" rx="17.36" ry="16.19"/><ellipse class="cls-5" cx="3306.04" cy="246.51" rx="17.36" ry="16.19"/><ellipse class="cls-4" cx="3417.78" cy="258.57" rx="4.42" ry="4.12"/><ellipse class="cls-4" cx="3296.54" cy="258.57" rx="4.42" ry="4.12"/><path class="cls-3" d="M3438.06,338.81c7.84,30-14.94,53-33.37,53s-18.49-19.4-33.37-53c-12-27.07,14.94-53,33.37-53S3430.63,310.38,3438.06,338.81Z"/><path class="cls-3" d="M3296.81,338.81c-7.78,30,14.81,53,33.07,53s18.32-19.4,33.07-53c11.89-27.07-14.81-53-33.07-53S3304.17,310.38,3296.81,338.81Z"/><path class="cls-6" d="M3349.36,298.49c0,12.75,9.47,11.88,19,12.65,12,1,19-5.66,19-12.65s-8.5-12.65-19-12.65S3349.36,291.51,3349.36,298.49Z"/><path class="cls-3" d="M3391.63,379.36c0,5.4-11.66,9.77-26.05,9.77s-26-4.37-26-9.77"/><path class="cls-7" d="M3399.13,199.94c0-8.39,15.8-15.2,35.3-15.2s35.3,6.81,35.3,15.2"/><path class="cls-7" d="M3270.74,199.94c0-8.39,15.8-15.2,35.3-15.2s35.3,6.81,35.3,15.2"/><path class="cls-3" d="M3605.82,146.06c0,38.64-58.42,46.28-103.11,46.28s-36.93,0-64.88-70c-14.38-36-26.79-84.59,80.92-70C3563,58.4,3605.82,107.41,3605.82,146.06Z"/><path class="cls-3" d="M3128.71,146.06c0,38.64,58.41,46.28,103.1,46.28s36.93,0,64.88-70c14.38-36,26.79-84.59-80.91-70C3171.51,58.4,3128.71,107.41,3128.71,146.06Z"/></g><g id="Layer_5" data-name="Layer 5"><ellipse class="cls-1" cx="898.35" cy="444.67" rx="59.96" ry="53.66"/><path class="cls-2" d="M822.32,564.91c0,93.33,126.12,169,281.71,169s281.71-75.65,281.71-169-54.16-198-281.71-169C950.08,415.54,822.32,471.59,822.32,564.91Z"/><path class="cls-1" d="M1219.75,714.74c0,33.69,40.45,37.66,78.31,61s78.31-27.32,78.31-61-48.19-91.11-78.31-61C1253.4,698.37,1219.75,681,1219.75,714.74Z"/><path class="cls-1" d="M1100.4,746.43c0,33.69,40.45,37.66,78.31,61s78.31-27.32,78.31-61-48.19-91.11-78.31-61C1134,730.06,1100.4,712.73,1100.4,746.43Z"/><path class="cls-1" d="M943.47,702.25c0,33.7-40.44,37.67-78.31,61s-78.3-27.31-78.3-61,48.19-91.1,78.3-61C909.83,685.88,943.47,668.56,943.47,702.25Z"/><path class="cls-1" d="M1001.65,735.14c0,33.7-40.44,37.67-78.31,61S845,768.84,845,735.14s48.2-91.11,78.31-61C968,718.77,1001.65,701.45,1001.65,735.14Z"/><path class="cls-1" d="M1032.56,246c-29.19,106.42,92.71,180.48,207.07,180.48S1485.94,361.82,1446.7,246C1414.22,150.07,1354,65.48,1239.63,65.48S1060.29,144.83,1032.56,246Z"/><rect class="cls-3" x="1164.95" y="267.16" width="152" height="147.37" rx="65.98" transform="translate(2481.9 681.68) rotate(-180)"/><ellipse class="cls-3" cx="1303.87" cy="235.63" rx="40.52" ry="39.29"/><ellipse class="cls-3" cx="1178.71" cy="235.63" rx="40.52" ry="39.29"/><ellipse class="cls-4" cx="1303.87" cy="235.63" rx="33.11" ry="26.56"/><ellipse class="cls-4" cx="1178.71" cy="235.63" rx="33.11" ry="26.56"/><ellipse class="cls-5" cx="1299.78" cy="239.35" rx="17.17" ry="16.64"/><ellipse class="cls-5" cx="1178.71" cy="239.35" rx="17.17" ry="16.64"/><ellipse class="cls-4" cx="1289.19" cy="251.75" rx="4.37" ry="4.24"/><ellipse class="cls-4" cx="1169.32" cy="251.75" rx="4.37" ry="4.24"/><path class="cls-3" d="M1309.25,334.26c7.75,30.88-14.78,54.46-33,54.46s-18.28-20-33-54.46c-11.86-27.84,14.77-54.47,33-54.47S1301.9,305,1309.25,334.26Z"/><path class="cls-3" d="M1169.59,334.26c-7.69,30.88,14.64,54.46,32.69,54.46s18.12-20,32.7-54.46c11.76-27.84-14.64-54.47-32.7-54.47S1176.87,305,1169.59,334.26Z"/><path class="cls-6" d="M1221.55,292.8c0,13.1,9.36,12.21,18.77,13,11.84,1,18.77-5.83,18.77-13s-8.4-13-18.77-13S1221.55,285.62,1221.55,292.8Z"/><path class="cls-3" d="M1263.35,376c0,5.55-11.54,10.05-25.76,10.05s-25.76-4.5-25.76-10.05"/><path class="cls-7" d="M1270.75,191.47c0-8.64,15.63-15.63,34.91-15.63s34.91,7,34.91,15.63"/><path class="cls-7" d="M1143.81,191.47c0-8.64,15.62-15.63,34.9-15.63s34.91,7,34.91,15.63"/><path class="cls-3" d="M1475.13,136.06c0,39.74-57.76,47.59-102,47.59s-36.52,0-64.15-71.95c-14.22-37-26.5-87,80-71.95C1432.8,45.93,1475.13,96.32,1475.13,136.06Z"/><path class="cls-3" d="M1003.37,136.06c0,39.74,57.76,47.59,101.95,47.59s36.52,0,64.15-71.95c14.22-37,26.49-87-80-71.95C1045.7,45.93,1003.37,96.32,1003.37,136.06Z"/></g></svg>