<svg id="Layer_1" data-name="Layer 1" xmlns="http://www.w3.org/2000/svg" width="1250mm" height="300mm" viewBox="0 0 3543.31 850.39"><defs><style>.cls-1,.cls-13,.cls-4{fill:#fdd4c0;}.cls-1,.cls-12,.cls-13,.cls-14,.cls-15,.cls-16,.cls-3,.cls-5,.cls-6,.cls-7,.cls-8{stroke:#231f20;}.cls-1,.cls-11,.cls-12,.cls-13,.cls-14,.cls-15,.cls-16,.cls-3,.cls-5,.cls-6,.cls-7,.cls-8{stroke-miterlimit:10;}.cls-2,.cls-3{fill:#7e1416;}.cls-5{fill:#ffe55e;}.cls-12,.cls-5{stroke-width:0.75px;}.cls-10,.cls-6{fill:#fff;}.cls-7{fill:#b1e3fa;}.cls-11,.cls-8{fill:none;}.cls-9{fill:#f4889d;}.cls-11{stroke:#ec008c;stroke-width:2px;}.cls-12,.cls-15{fill:#231f20;}.cls-13{opacity:0.5;isolation:isolate;}.cls-14{fill:#f494be;}.cls-16{fill:#abdff0;}</style></defs><title>character-01</title><g id="_5" data-name=" 5"><circle class="cls-1" cx="3289.01" cy="295.41" r="92.61"/><circle class="cls-1" cx="3196.4" cy="320.5" r="15.93"/><circle class="cls-2" cx="3196.4" cy="320.5" r="6.98"/><circle class="cls-1" cx="3381.62" cy="315.53" r="15.93"/><circle class="cls-3" cx="3381.62" cy="315.53" r="6.98"/><ellipse class="cls-4" cx="3322.81" cy="268.97" rx="18.63" ry="21.54"/><ellipse class="cls-4" cx="3246.35" cy="268.97" rx="18.63" ry="21.54"/><path class="cls-5" d="M3347.52,226.15c0,12.9-42.39,7.34-56.69,23.35-23.57,26.39-55.95-6.27-55.79-23.35.12-12.89,33.23-23.35,55.79-23.35S3347.52,213.26,3347.52,226.15Z"/><ellipse class="cls-6" cx="3246.35" cy="290.51" rx="14.85" ry="18.05"/><ellipse class="cls-6" cx="3326.6" cy="290.51" rx="14.85" ry="18.05"/><path class="cls-7" d="M3261.2,290.53c0,10-6.65,18-14.85,18s-14.84-8.08-14.84-18"/><path class="cls-7" d="M3341.44,290.53c0,10-6.64,18-14.84,18s-14.87-8-14.87-18"/><path class="cls-8" d="M3261.67,302.24c-2.77,13.14-13.15,22.08-23.2,20s-15.94-14.49-13.18-27.63"/><path class="cls-8" d="M3341.4,305.63c.63,10.44-5.4,19.29-13.45,19.77s-15.09-7.58-15.72-18"/><path class="cls-8" d="M3232,308.33a9.46,9.46,0,0,0,18.81,2.11,2.83,2.83,0,0,0,0-.29"/><path class="cls-8" d="M3318.35,314.3A9.46,9.46,0,0,0,3337,311"/><path class="cls-8" d="M3262.89,348.4c-1.51.4-1.54,5.2-.06,10.72s3.89,9.67,5.4,9.27"/><path class="cls-8" d="M3321.66,367.24c1,0,2-4.55,2.26-10.26s-.42-10.37-1.44-10.41"/><path class="cls-9" d="M3309.32,344.82c0,8.64-8.08,22.42-18,22.42s-18.05-13.78-18.05-22.42,8.08,0,18.05,0S3309.32,336.17,3309.32,344.82Z"/><path class="cls-9" d="M3309.32,370.37c-.05-8-8.22-20.72-18.19-20.65s-18,12.89-17.9,20.9,8.08,0,18.05-.12S3309.38,378.38,3309.32,370.37Z"/><circle class="cls-10" cx="3291.28" cy="356.91" r="5.82"/><path class="cls-11" d="M3302.05,354.78c0,8.68-4.83,15.72-10.77,15.72s-10.77-7-10.77-15.72"/><path class="cls-12" d="M3255.73,291a8.88,8.88,0,0,1-17.76,0"/><path class="cls-12" d="M3335.73,291a8.88,8.88,0,0,1-17.76,0"/><line class="cls-8" x1="3321.66" y1="262.56" x2="3343.49" y2="265.16"/><line class="cls-8" x1="3255.64" y1="263.47" x2="3233.81" y2="266.07"/><rect class="cls-1" x="3280.8" y="388.02" width="20.95" height="30.93"/><rect class="cls-13" x="3280.3" y="386.82" width="21.95" height="0.01"/><ellipse class="cls-1" cx="3291.28" cy="496.8" rx="80.54" ry="85.09"/><path class="cls-14" d="M3210.73,496.8c0,47,36.06,85.09,80.54,85.09s80.53-38.1,80.53-85.09"/><polygon class="cls-15" points="3280.86 550.11 3270.44 488.83 3280.86 427.55 3301.69 427.55 3312.11 488.83 3301.69 550.11 3280.86 550.11"/><polygon class="cls-15" points="3298.76 433.27 3281.3 433.27 3272.58 418.16 3281.3 403.04 3298.76 403.04 3307.48 418.16 3298.76 433.27"/><ellipse class="cls-1" cx="3210.58" cy="478.12" rx="7.21" ry="59.17"/><line class="cls-8" x1="3216.63" y1="510.37" x2="3278.53" y2="511.78"/><line class="cls-8" x1="3304.77" y1="512.38" x2="3366.66" y2="513.8"/><circle class="cls-6" cx="3210.74" cy="510.24" r="5.99"/><circle class="cls-15" cx="3210.74" cy="510.24" r="0.7"/><line class="cls-8" x1="3210.74" y1="506.29" x2="3210.74" y2="510.24"/><line class="cls-8" x1="3210.74" y1="510.24" x2="3214.63" y2="510.24"/><ellipse class="cls-1" cx="3255.26" cy="604.87" rx="7.09" ry="37.18"/><ellipse class="cls-1" cx="3328.76" cy="604.87" rx="7.09" ry="37.18"/><path class="cls-16" d="M3263.49,633.42c-3,10.85-23.72,19.77-28.45,18.09-37.65-13.39,4.29-3.37,4.29-18.09s5.41-14.07,12.08-14.07S3267.41,619.23,3263.49,633.42Z"/><path class="cls-16" d="M3319.84,633.53c3,10.85,23.72,19.77,28.45,18.09,37.64-13.39-4.29-3.37-4.29-18.09s-5.41-14.07-12.08-14.07S3315.92,619.32,3319.84,633.53Z"/></g><g id="_4" data-name=" 4"><circle class="cls-1" cx="2528.09" cy="295.41" r="92.61"/><circle class="cls-1" cx="2435.48" cy="320.5" r="15.93"/><circle class="cls-2" cx="2435.48" cy="320.5" r="6.98"/><circle class="cls-1" cx="2620.7" cy="315.53" r="15.93"/><circle class="cls-3" cx="2620.7" cy="315.53" r="6.98"/><ellipse class="cls-4" cx="2561.9" cy="268.97" rx="18.63" ry="21.54"/><ellipse class="cls-4" cx="2485.44" cy="268.97" rx="18.63" ry="21.54"/><path class="cls-5" d="M2586.6,226.15c0,12.9-42.39,7.34-56.69,23.35-23.56,26.39-55.95-6.27-55.79-23.35.12-12.89,33.23-23.35,55.79-23.35S2586.6,213.26,2586.6,226.15Z"/><ellipse class="cls-6" cx="2485.44" cy="290.51" rx="14.85" ry="18.05"/><ellipse class="cls-6" cx="2565.68" cy="290.51" rx="14.85" ry="18.05"/><path class="cls-7" d="M2500.28,290.53c0,10-6.64,18-14.84,18s-14.85-8.08-14.85-18"/><path class="cls-7" d="M2580.53,290.53c0,10-6.65,18-14.85,18s-14.85-8.08-14.85-18"/><path class="cls-8" d="M2500.73,302.24c-2.77,13.14-13.15,22.08-23.2,20s-15.94-14.49-13.17-27.63"/><path class="cls-8" d="M2580.48,305.63c.63,10.44-5.39,19.29-13.45,19.77s-15.09-7.58-15.72-18"/><path class="cls-8" d="M2471.09,308.33a9.46,9.46,0,0,0,18.81,2.11,2.83,2.83,0,0,0,0-.29"/><path class="cls-8" d="M2557.43,314.3a9.46,9.46,0,1,0,18.63-3.34h0"/><path class="cls-8" d="M2502,348.4c-1.51.4-1.54,5.2-.07,10.72s3.89,9.67,5.4,9.27"/><path class="cls-8" d="M2560.73,367.24c1,0,2-4.55,2.25-10.26s-.41-10.37-1.43-10.41"/><path class="cls-9" d="M2548.41,344.82c0,8.64-8.08,22.42-18,22.42s-18-13.78-18-22.42,8.08,0,18,0S2548.41,336.17,2548.41,344.82Z"/><path class="cls-9" d="M2548.41,370.37c-.06-8-8.23-20.72-18.2-20.65s-18,12.89-17.9,20.9,8.08,0,18.05-.12S2548.46,378.38,2548.41,370.37Z"/><circle class="cls-10" cx="2530.36" cy="356.91" r="5.82"/><path class="cls-11" d="M2541.13,354.78c0,8.68-4.82,15.72-10.77,15.72s-10.77-7-10.77-15.72"/><path class="cls-12" d="M2494.79,291a8.88,8.88,0,0,1-17.76,0"/><path class="cls-12" d="M2574.8,291a8.88,8.88,0,0,1-17.76,0"/><line class="cls-8" x1="2560.75" y1="262.56" x2="2582.58" y2="265.16"/><line class="cls-8" x1="2494.72" y1="263.47" x2="2472.89" y2="266.07"/><rect class="cls-1" x="2519.88" y="388.02" width="20.95" height="30.93"/><rect class="cls-13" x="2519.38" y="386.82" width="21.95" height="0.01"/><ellipse class="cls-1" cx="2530.36" cy="496.8" rx="80.54" ry="85.09"/><path class="cls-14" d="M2449.82,496.8c0,47,36.06,85.09,80.54,85.09s80.54-38.1,80.54-85.09"/><polygon class="cls-15" points="2519.94 550.11 2509.53 488.83 2519.94 427.55 2540.78 427.55 2551.19 488.83 2540.78 550.11 2519.94 550.11"/><polygon class="cls-15" points="2537.84 433.27 2520.39 433.27 2511.66 418.16 2520.39 403.04 2537.84 403.04 2546.57 418.16 2537.84 433.27"/><ellipse class="cls-1" cx="2449.67" cy="478.12" rx="7.21" ry="59.17"/><line class="cls-8" x1="2455.71" y1="510.37" x2="2517.61" y2="511.78"/><line class="cls-8" x1="2543.85" y1="512.38" x2="2605.75" y2="513.8"/><circle class="cls-6" cx="2449.82" cy="510.24" r="5.99"/><circle class="cls-15" cx="2449.82" cy="510.24" r="0.7"/><line class="cls-8" x1="2449.82" y1="506.29" x2="2449.82" y2="510.24"/><line class="cls-8" x1="2449.82" y1="510.24" x2="2453.71" y2="510.24"/><ellipse class="cls-1" cx="2494.34" cy="604.87" rx="7.09" ry="37.18"/><ellipse class="cls-1" cx="2567.84" cy="604.87" rx="7.09" ry="37.18"/><path class="cls-16" d="M2502.57,633.42c-3,10.85-23.72,19.77-28.45,18.09-37.64-13.39,4.29-3.37,4.29-18.09s5.41-14.07,12.08-14.07S2506.49,619.23,2502.57,633.42Z"/><path class="cls-16" d="M2558.93,633.53c3,10.85,23.71,19.77,28.45,18.09,37.64-13.39-4.3-3.37-4.3-18.09s-5.41-14.07-12.08-14.07S2555,619.32,2558.93,633.53Z"/></g><g id="_3" data-name=" 3"><circle class="cls-1" cx="1767.17" cy="295.41" r="92.61"/><circle class="cls-1" cx="1674.56" cy="320.5" r="15.93"/><circle class="cls-2" cx="1674.56" cy="320.5" r="6.98"/><circle class="cls-1" cx="1859.78" cy="315.53" r="15.93"/><circle class="cls-3" cx="1859.78" cy="315.53" r="6.98"/><ellipse class="cls-4" cx="1800.98" cy="268.97" rx="18.63" ry="21.54"/><ellipse class="cls-4" cx="1724.52" cy="268.97" rx="18.63" ry="21.54"/><path class="cls-5" d="M1825.73,226.15c0,12.9-42.38,7.34-56.69,23.35-23.56,26.39-56-6.27-55.79-23.35.12-12.89,33.23-23.35,55.79-23.35S1825.73,213.26,1825.73,226.15Z"/><ellipse class="cls-6" cx="1724.52" cy="290.51" rx="14.85" ry="18.05"/><ellipse class="cls-6" cx="1804.76" cy="290.51" rx="14.85" ry="18.05"/><path class="cls-7" d="M1739.37,290.53c0,10-6.65,18-14.85,18s-14.85-8.08-14.85-18"/><path class="cls-7" d="M1819.61,290.53c0,10-6.65,18-14.85,18s-14.84-8.08-14.84-18"/><path class="cls-8" d="M1739.83,302.24c-2.76,13.14-13.15,22.08-23.19,20s-16-14.49-13.18-27.63"/><path class="cls-8" d="M1819.56,305.63c.63,10.44-5.39,19.29-13.44,19.77s-15.1-7.58-15.73-18"/><path class="cls-8" d="M1710.17,308.33a9.46,9.46,0,1,0,18.84,1.82"/><path class="cls-8" d="M1796.51,314.3a9.46,9.46,0,1,0,18.63-3.34h0"/><path class="cls-8" d="M1741.06,348.4c-1.51.4-1.54,5.2-.07,10.72s3.89,9.67,5.4,9.27"/><path class="cls-8" d="M1799.83,367.24c1,0,2-4.55,2.25-10.26s-.41-10.37-1.43-10.41"/><path class="cls-9" d="M1787.49,344.82c0,8.64-8.08,22.42-18,22.42s-18-13.78-18-22.42,8.08,0,18,0S1787.49,336.17,1787.49,344.82Z"/><path class="cls-9" d="M1787.49,370.37c-.06-8-8.23-20.72-18.2-20.65s-18,12.89-17.9,20.9,8.08,0,18-.12S1787.55,378.38,1787.49,370.37Z"/><circle class="cls-10" cx="1769.44" cy="356.91" r="5.82"/><path class="cls-11" d="M1780.21,354.78c0,8.68-4.82,15.72-10.77,15.72s-10.77-7-10.77-15.72"/><path class="cls-12" d="M1733.87,291a8.88,8.88,0,1,1-17.76,0"/><path class="cls-12" d="M1813.88,291a8.88,8.88,0,0,1-17.76,0"/><line class="cls-8" x1="1799.83" y1="262.56" x2="1821.66" y2="265.16"/><line class="cls-8" x1="1733.8" y1="263.47" x2="1711.98" y2="266.07"/><rect class="cls-1" x="1758.97" y="388.02" width="20.95" height="30.93"/><rect class="cls-13" x="1758.47" y="386.82" width="21.95" height="0.01"/><ellipse class="cls-1" cx="1769.44" cy="496.8" rx="80.54" ry="85.09"/><path class="cls-14" d="M1688.9,496.8c0,47,36.06,85.09,80.54,85.09S1850,543.79,1850,496.8"/><polygon class="cls-15" points="1759.03 550.11 1748.61 488.83 1759.03 427.55 1779.86 427.55 1790.28 488.83 1779.86 550.11 1759.03 550.11"/><polygon class="cls-15" points="1776.92 433.27 1759.47 433.27 1750.75 418.16 1759.47 403.04 1776.92 403.04 1785.65 418.16 1776.92 433.27"/><ellipse class="cls-1" cx="1688.75" cy="478.12" rx="7.21" ry="59.17"/><line class="cls-8" x1="1694.79" y1="510.37" x2="1756.69" y2="511.78"/><line class="cls-8" x1="1782.93" y1="512.38" x2="1844.83" y2="513.8"/><circle class="cls-6" cx="1688.9" cy="510.24" r="5.99"/><circle class="cls-15" cx="1688.9" cy="510.24" r="0.7"/><line class="cls-8" x1="1688.9" y1="506.29" x2="1688.9" y2="510.24"/><line class="cls-8" x1="1688.9" y1="510.24" x2="1692.8" y2="510.24"/><ellipse class="cls-1" cx="1733.42" cy="604.87" rx="7.09" ry="37.18"/><ellipse class="cls-1" cx="1806.92" cy="604.87" rx="7.09" ry="37.18"/><path class="cls-16" d="M1741.65,633.42c-3,10.85-23.72,19.77-28.45,18.09-37.64-13.39,4.3-3.37,4.3-18.09s5.4-14.07,12.07-14.07S1745.57,619.23,1741.65,633.42Z"/><path class="cls-16" d="M1798,633.53c3,10.85,23.72,19.77,28.45,18.09,37.64-13.39-4.3-3.37-4.3-18.09s-5.41-14.07-12.08-14.07S1794.08,619.32,1798,633.53Z"/></g><g id="_2" data-name=" 2"><circle class="cls-1" cx="1007.28" cy="295.65" r="92.61"/><circle class="cls-1" cx="914.67" cy="320.74" r="15.93"/><circle class="cls-2" cx="914.67" cy="320.74" r="6.98"/><circle class="cls-1" cx="1099.89" cy="315.77" r="15.93"/><circle class="cls-3" cx="1099.89" cy="315.77" r="6.98"/><ellipse class="cls-4" cx="1041.09" cy="269.21" rx="18.63" ry="21.54"/><ellipse class="cls-4" cx="964.63" cy="269.21" rx="18.63" ry="21.54"/><path class="cls-5" d="M1065.76,226.39c0,12.9-42.38,7.34-56.68,23.35-23.57,26.39-56-6.27-55.79-23.35.12-12.89,33.23-23.35,55.79-23.35S1065.76,213.5,1065.76,226.39Z"/><ellipse class="cls-6" cx="964.63" cy="290.75" rx="14.85" ry="18.05"/><ellipse class="cls-6" cx="1044.88" cy="290.75" rx="14.85" ry="18.05"/><path class="cls-7" d="M979.48,290.77c0,10-6.65,18-14.85,18s-14.87-8-14.87-18"/><path class="cls-7" d="M1059.76,290.77c0,10-6.64,18-14.84,18s-14.85-8.08-14.85-18"/><path class="cls-8" d="M980,302.48c-2.77,13.14-13.16,22.08-23.2,20S940.81,308,943.57,294.85"/><path class="cls-8" d="M1059.68,305.87c.62,10.44-5.4,19.29-13.45,19.77s-15.1-7.58-15.72-18"/><path class="cls-8" d="M950.29,308.57a9.46,9.46,0,0,0,18.81,2.11,2.83,2.83,0,0,0,0-.29"/><path class="cls-8" d="M1036.63,314.54a9.46,9.46,0,0,0,18.62-3.34"/><path class="cls-8" d="M981.17,348.64c-1.51.4-1.54,5.2-.06,10.72s3.89,9.67,5.4,9.27"/><path class="cls-8" d="M1039.94,367.48c1,0,2-4.55,2.26-10.26s-.44-10.37-1.44-10.45"/><path class="cls-9" d="M1027.6,345.06c0,8.64-8.08,22.42-18,22.42s-18-13.78-18-22.42,8.08,0,18,0S1027.6,336.41,1027.6,345.06Z"/><path class="cls-9" d="M1027.6,370.61c0-8-8.22-20.72-18.19-20.65s-18,12.89-17.9,20.9,8.08,0,18-.12S1027.66,378.62,1027.6,370.61Z"/><circle class="cls-10" cx="1009.55" cy="357.15" r="5.82"/><path class="cls-11" d="M1020.33,355c0,8.68-4.83,15.72-10.78,15.72s-10.77-7-10.77-15.72"/><path class="cls-12" d="M974,291.21a8.88,8.88,0,0,1-17.76,0"/><path class="cls-12" d="M1054,291.21a8.88,8.88,0,0,1-17.76,0"/><line class="cls-8" x1="1039.94" y1="262.8" x2="1061.77" y2="265.4"/><line class="cls-8" x1="973.92" y1="263.71" x2="952.09" y2="266.31"/><rect class="cls-1" x="999.08" y="388.26" width="20.95" height="30.93"/><rect class="cls-13" x="998.58" y="387.06" width="21.95" height="0.01"/><ellipse class="cls-1" cx="1009.55" cy="497.04" rx="80.54" ry="85.09"/><path class="cls-14" d="M929,497c0,47,36,85.09,80.53,85.09s80.54-38.1,80.54-85.09"/><polygon class="cls-15" points="999.14 550.35 988.72 489.07 999.14 427.79 1019.97 427.79 1030.39 489.07 1019.97 550.35 999.14 550.35"/><polygon class="cls-15" points="1017.03 433.51 999.58 433.51 990.86 418.4 999.58 403.28 1017.03 403.28 1025.76 418.4 1017.03 433.51"/><ellipse class="cls-1" cx="928.86" cy="478.36" rx="7.21" ry="59.17"/><line class="cls-8" x1="934.91" y1="510.61" x2="996.8" y2="512.02"/><line class="cls-8" x1="1023.05" y1="512.62" x2="1084.94" y2="514.04"/><circle class="cls-6" cx="929.02" cy="510.48" r="5.99"/><circle class="cls-15" cx="929.02" cy="510.48" r="0.7"/><line class="cls-8" x1="929.02" y1="506.53" x2="929.02" y2="510.48"/><line class="cls-8" x1="929.02" y1="510.48" x2="932.91" y2="510.48"/><ellipse class="cls-1" cx="973.54" cy="605.11" rx="7.09" ry="37.18"/><ellipse class="cls-1" cx="1047.03" cy="605.11" rx="7.09" ry="37.18"/><path class="cls-16" d="M981.76,633.66c-3,10.85-23.71,19.77-28.45,18.09-37.64-13.39,4.3-3.37,4.3-18.09s5.41-14.07,12.08-14.07S985.69,619.47,981.76,633.66Z"/><path class="cls-16" d="M1038.12,633.77c3,10.85,23.72,19.77,28.45,18.09,37.64-13.39-4.3-3.37-4.3-18.09s-5.4-14.07-12.07-14.07S1034.2,619.56,1038.12,633.77Z"/></g><g id="_1" data-name=" 1"><circle class="cls-1" cx="254.29" cy="295.38" r="92.61"/><circle class="cls-1" cx="161.68" cy="320.47" r="15.93"/><circle class="cls-2" cx="161.68" cy="320.47" r="6.98"/><circle class="cls-1" cx="346.9" cy="315.5" r="15.93"/><circle class="cls-3" cx="346.9" cy="315.5" r="6.98"/><ellipse class="cls-4" cx="288.1" cy="268.94" rx="18.63" ry="21.54"/><ellipse class="cls-4" cx="211.64" cy="268.94" rx="18.63" ry="21.54"/><path class="cls-5" d="M312.8,226.12c0,12.9-42.39,7.34-56.69,23.35-23.57,26.39-56-6.27-55.79-23.35.12-12.89,33.23-23.35,55.79-23.35S312.8,213.23,312.8,226.12Z"/><ellipse class="cls-6" cx="211.64" cy="290.48" rx="14.85" ry="18.05"/><ellipse class="cls-6" cx="291.88" cy="290.48" rx="14.85" ry="18.05"/><path class="cls-7" d="M226.48,290.5c0,10-6.64,18-14.84,18s-14.85-8.08-14.85-18"/><path class="cls-7" d="M306.73,290.5c0,10-6.65,18-14.85,18S277,300.42,277,290.5"/><path class="cls-8" d="M227,302.21c-2.77,13.14-13.15,22.08-23.2,20s-15.94-14.49-13.17-27.63"/><path class="cls-8" d="M306.68,305.6c.63,10.44-5.39,19.29-13.45,19.77s-15.09-7.58-15.72-18"/><path class="cls-8" d="M197.29,308.3a9.46,9.46,0,0,0,18.81,2.12c0-.1,0-.2,0-.3"/><path class="cls-8" d="M283.68,314.27a9.46,9.46,0,0,0,18.68-3l-.06-.33"/><path class="cls-8" d="M228.17,348.37c-1.5.4-1.53,5.2-.06,10.72s3.89,9.67,5.4,9.27"/><path class="cls-8" d="M287,367.21c1,0,2-4.55,2.25-10.26s-.42-10.37-1.43-10.41"/><path class="cls-9" d="M274.61,344.79c0,8.64-8.08,22.42-18.05,22.42s-18-13.78-18-22.42,8.08,0,18,0S274.61,336.14,274.61,344.79Z"/><path class="cls-9" d="M274.6,370.34c-.05-8-8.22-20.72-18.19-20.65s-18,12.89-17.9,20.9,8.08,0,18-.12S274.68,378.35,274.6,370.34Z"/><circle class="cls-10" cx="256.56" cy="356.88" r="5.82"/><path class="cls-11" d="M267.33,354.75c0,8.68-4.82,15.72-10.77,15.72s-10.77-7-10.77-15.72"/><path class="cls-12" d="M221,290.94a8.88,8.88,0,0,1-17.76,0"/><path class="cls-12" d="M301,290.94a8.88,8.88,0,0,1-17.76,0"/><line class="cls-8" x1="286.95" y1="262.53" x2="308.77" y2="265.13"/><line class="cls-8" x1="220.92" y1="263.44" x2="199.09" y2="266.04"/><rect class="cls-1" x="246.08" y="387.99" width="20.95" height="30.93"/><rect class="cls-13" x="245.58" y="386.79" width="21.95" height="0.01"/><ellipse class="cls-1" cx="256.56" cy="496.77" rx="80.54" ry="85.09"/><path class="cls-14" d="M176,496.77c0,47,36.06,85.09,80.54,85.09s80.54-38.1,80.54-85.09"/><polygon class="cls-15" points="246.14 550.09 235.72 488.81 246.14 427.52 266.97 427.52 277.39 488.81 266.97 550.09 246.14 550.09"/><polygon class="cls-15" points="264.04 433.25 246.59 433.25 237.86 418.13 246.59 403.01 264.04 403.01 272.76 418.13 264.04 433.25"/><ellipse class="cls-1" cx="175.87" cy="478.09" rx="7.21" ry="59.17"/><ellipse class="cls-1" cx="335.84" cy="478.09" rx="7.21" ry="59.17"/><line class="cls-8" x1="181.91" y1="510.34" x2="243.81" y2="511.75"/><line class="cls-8" x1="270.05" y1="512.35" x2="331.95" y2="513.77"/><circle class="cls-6" cx="176.02" cy="510.21" r="5.99"/><circle class="cls-15" cx="176.02" cy="510.21" r="0.7"/><line class="cls-8" x1="176.02" y1="506.26" x2="176.02" y2="510.21"/><line class="cls-8" x1="176.02" y1="510.21" x2="179.91" y2="510.21"/><ellipse class="cls-1" cx="220.54" cy="604.84" rx="7.09" ry="37.18"/><ellipse class="cls-1" cx="294.04" cy="604.84" rx="7.09" ry="37.18"/><path class="cls-16" d="M228.77,633.39c-3,10.85-23.72,19.77-28.45,18.09-37.64-13.39,4.29-3.37,4.29-18.09s5.41-14.07,12.08-14.07S232.68,619.2,228.77,633.39Z"/><path class="cls-16" d="M285.12,633.5c3,10.85,23.72,19.77,28.45,18.09,37.65-13.39-4.29-3.37-4.29-18.09s-5.41-14.07-12.08-14.07S281.2,619.29,285.12,633.5Z"/><path class="cls-1" d="M1062.82,427.41c4.35-2.76,21.17,17.94,36.09,47.45,14.75,29.16,27.08,52.71,23.64,54.71s-19.59-19.23-36.09-47.44S1059.46,429.55,1062.82,427.41Z"/></g><ellipse class="cls-1" cx="1852.8" cy="478.09" rx="7.21" ry="59.17" transform="translate(209.97 1459.19) rotate(-45.31)"/><ellipse class="cls-1" cx="2636.63" cy="436.17" rx="59.17" ry="7.21" transform="translate(-35.69 408.18) rotate(-8.79)"/><ellipse class="cls-1" cx="3397.55" cy="436.17" rx="59.17" ry="7.21" transform="translate(1274.03 3123.96) rotate(-59)"/></svg>